<?xml version="1.0" encoding="UTF-8" standalone="no"?>
<svg
   xmlns:dc="http://purl.org/dc/elements/1.1/"
   xmlns:cc="http://creativecommons.org/ns#"
   xmlns:rdf="http://www.w3.org/1999/02/22-rdf-syntax-ns#"
   xmlns:svg="http://www.w3.org/2000/svg"
   xmlns="http://www.w3.org/2000/svg"
   xmlns:sodipodi="http://sodipodi.sourceforge.net/DTD/sodipodi-0.dtd"
   xmlns:inkscape="http://www.inkscape.org/namespaces/inkscape"
   width="145.0985mm"
   height="138.11909mm"
   viewBox="0 0 145.0985 138.11909"
   version="1.1"
   id="svg44"
   inkscape:version="1.0.2-2 (e86c870879, 2021-01-15)"
   sodipodi:docname="coffee.svg">
  <defs
     id="defs38" />
  <sodipodi:namedview
     id="base"
     pagecolor="#ffffff"
     bordercolor="#666666"
     borderopacity="1.0"
     inkscape:pageopacity="0.0"
     inkscape:pageshadow="2"
     inkscape:zoom="0.35"
     inkscape:cx="283.24421"
     inkscape:cy="320.47653"
     inkscape:document-units="mm"
     inkscape:current-layer="g60"
     inkscape:document-rotation="0"
     showgrid="false"
     fit-margin-top="0"
     fit-margin-left="0"
     fit-margin-right="0"
     fit-margin-bottom="0"
     inkscape:window-width="1273"
     inkscape:window-height="728"
     inkscape:window-x="26"
     inkscape:window-y="0"
     inkscape:window-maximized="0" />
  <metadata
     id="metadata41">
    <rdf:RDF>
      <cc:Work
         rdf:about="">
        <dc:format>image/svg+xml</dc:format>
        <dc:type
           rdf:resource="http://purl.org/dc/dcmitype/StillImage" />
        <dc:title></dc:title>
      </cc:Work>
    </rdf:RDF>
  </metadata>
  <g
     inkscape:label="طبقة 1"
     inkscape:groupmode="layer"
     id="layer1"
     transform="translate(-30.891635,-63.373919)">
    <g
       id="g60"
       style="fill:#848484">
      <path
         style="fill:#848484;fill-opacity:1;stroke-width:0.283612"
         d="m 70.693923,200.76356 c -0.476803,-0.4012 -1.030612,-1.07124 -1.230692,-1.48897 l -0.363783,-0.7595 -10.928528,-0.14181 c -9.76625,-0.12672 -11.008736,-0.1944 -11.682694,-0.63633 -1.557164,-1.02106 -2.525239,-2.39678 -2.895081,-4.11417 l -0.198498,-0.92174 H 95.198926 147.0032 l -0.19849,0.92174 c -0.27416,1.27307 -0.78703,2.20896 -1.73462,3.16533 -1.54938,1.56375 -1.7287,1.58517 -13.27069,1.58517 h -10.63916 l -0.17719,0.70597 c -0.0975,0.38829 -0.61482,1.09023 -1.14972,1.55987 l -0.97253,0.8539 H 95.210818 71.560835 Z m -6.095598,-12.90067 c -7.575788,-2.50106 -13.849635,-6.23786 -18.747906,-11.16656 -3.559623,-3.58173 -5.404046,-6.12818 -7.634108,-10.53984 -4.509212,-8.92043 -6.520242,-19.60271 -7.136183,-37.9063 l -0.188493,-5.60134 h 61.578401 61.578404 v 5.03412 5.03411 l 4.04147,0.0312 c 6.41889,0.0495 10.2899,1.40039 13.70826,4.78387 2.94499,2.91493 4.22499,6.42472 4.19131,11.49266 -0.0237,3.57368 -0.56631,5.77401 -2.18823,8.87433 -3.89834,7.45171 -14.15939,12.50387 -27.26695,13.42524 l -2.71074,0.19055 -1.37515,1.74986 c -5.28822,6.72912 -12.73684,11.63945 -22.41768,14.77832 l -2.99367,0.97065 -24.532449,-0.0185 -24.532448,-0.0185 -3.373838,-1.11384 z m 88.983535,-26.68113 c 6.61949,-1.65255 10.89069,-4.38578 12.70258,-8.12865 0.44462,-0.91847 0.67081,-2.00349 0.756,-3.62662 0.19815,-3.77524 -0.64572,-5.5421 -3.25718,-6.81977 -1.38126,-0.67579 -2.02648,-0.79732 -4.79604,-0.90333 -1.76004,-0.0674 -3.75933,-0.0386 -4.44287,0.0639 l -1.2428,0.18637 -0.61294,4.3155 c -0.66425,4.6768 -1.94239,10.26786 -3.04892,13.33709 -0.38295,1.06221 -0.69627,2.06252 -0.69627,2.22292 0,0.34833 1.47409,0.14259 4.63844,-0.64739 z M 83.266945,116.34919 c 4.311179,-4.45691 3.942758,-9.67007 -1.238427,-17.523757 -3.193475,-4.8407 -4.644108,-8.372666 -5.179372,-12.610607 -0.672847,-5.327255 1.004602,-9.907171 5.151717,-14.06568 2.71859,-2.726059 4.727125,-4.176857 8.196146,-5.920214 2.369917,-1.191003 6.436259,-2.855013 6.976796,-2.855013 0.157379,0 -0.563659,0.76698 -1.602309,1.704399 -3.420025,3.086697 -5.974879,7.160253 -6.721865,10.717591 -0.448505,2.135897 -0.390523,5.957544 0.12851,8.47034 0.633448,3.066726 1.56093,5.508217 4.237916,11.155839 2.75205,5.805982 3.259123,7.410692 3.259123,10.313952 0,5.21406 -3.177023,8.85294 -9.528524,10.91373 -1.388747,0.45059 -3.111194,0.90471 -3.827666,1.00917 l -1.302679,0.18992 z m 15.848673,-1.61561 c 0.83364,-0.78842 1.888742,-2.16969 2.344662,-3.06948 0.72963,-1.43998 0.82685,-1.92482 0.81141,-4.04669 -0.0189,-2.60287 -0.45055,-4.25506 -2.22273,-8.508365 -1.207871,-2.898949 -1.4591,-4.329883 -1.036041,-5.901006 0.573049,-2.128141 3.023281,-3.836813 6.414201,-4.472955 l 1.1059,-0.207468 -0.89446,0.894462 c -2.11626,2.11626 -1.96458,4.277789 0.65919,9.393698 1.71526,3.344464 1.86517,3.784214 2.00992,5.896084 0.12409,1.81038 0.0459,2.59066 -0.3785,3.77505 -0.95762,2.67275 -3.71319,5.14561 -7.37132,6.61506 -2.974447,1.19482 -3.06944,1.17056 -1.442232,-0.36839 z"
         id="path62" />
    </g>
  </g>
</svg>
