<?xml version="1.0" encoding="UTF-8"?>
<svg width="125.39mm" height="111.08mm" version="1.1" viewBox="0 0 125.39 111.08" xmlns="http://www.w3.org/2000/svg" xmlns:cc="http://creativecommons.org/ns#" xmlns:dc="http://purl.org/dc/elements/1.1/" xmlns:rdf="http://www.w3.org/1999/02/22-rdf-syntax-ns#">
 <metadata>
  <rdf:RDF>
   <cc:Work rdf:about="">
    <dc:format>image/svg+xml</dc:format>
    <dc:type rdf:resource="http://purl.org/dc/dcmitype/StillImage"/>
    <dc:title/>
   </cc:Work>
  </rdf:RDF>
 </metadata>
 <g transform="translate(-41.626 -69.933)">
  <path d="m113.8 180.65c-1.9952-0.39724-4.2915-1.3266-4.0887-1.6547 0.0738-0.11943 1.2434-0.11305 2.5992 0.0142 2.9284 0.2748 6.8504 0.073 9.1471-0.47066 4.6561-1.1021 9.1781-3.6808 12.386-7.063 2.3403-2.4677 3.5072-4.2443 5.4135-8.2418 1.7444-3.6581 2.1755-3.6922 1.4535-0.11494-1.7468 8.6553-8.9106 15.656-17.92 17.513-2.4286 0.50041-6.5267 0.50873-8.9903 0.0183zm-38.051-6.9792c-14.732-3.2589-24.319-15.131-23.736-29.396 0.13213-3.2339 0.72083-6.0854 1.2564-6.0854 0.14497 0 0.25659 1.1092 0.25958 2.5797 0.01762 8.6703 3.1652 16.564 8.831 22.147 7.5877 7.4768 18.25 10.124 28.705 7.1253 1.2532-0.35942 3.8695-1.4224 5.814-2.3621s3.7147-1.7086 3.9338-1.7086 1.4596 0.47785 2.7567 1.0619c5.3019 2.3873 9.9629 3.1061 14.735 2.2723 7.2184-1.2614 12.709-5.2178 17.24-12.422 0.83721-1.3313 1.0516-1.866 0.80845-2.0162-0.18942-0.11706 0.61358-0.33857 1.8782-0.5181 10.137-1.439 18.215-6.8329 22.506-15.027 2.3404-4.4692 3.3125-9.0308 3.0325-14.229-0.37341-6.9309-2.9962-13.122-7.6234-17.995-5.754-6.0595-12.762-9.1416-21.924-9.6415-2.2556-0.12308-4.1396-0.18734-4.1867-0.1428-0.0471 0.04454 0.10436 0.44843 0.3366 0.89753 1.1943 2.3096 0.82521 2.1183-2.3708-1.2284-3.9933-4.1816-6.9192-6.4454-10.845-8.3903-4.9452-2.4501-9.059-3.4172-14.552-3.4207-9.3714-6e-3 -17.378 3.4403-24.823 10.685-1.7198 1.6735-3.188 3.102-3.2627 3.1745-0.07464 0.07246-0.05808-0.17759 0.03681-0.55566 0.16889-0.67291 0.13782-0.69104-1.4725-0.85935-3.8768-0.4052-8.4985 0.01259-11.754 1.0625-6.3173 2.0375-11.715 7.2741-13.727 13.318-2.4989 7.5056-1.1558 15.035 4.2283 23.702 0.64036 1.0309 1.1643 1.9659 1.1643 2.0779s-0.44648-0.18578-0.99219-0.66173c-2.7639-2.4106-5.8266-7.4949-7.0824-11.757-0.95635-3.2459-1.1869-8.0498-0.54015-11.253 1.7474-8.6543 7.9201-15.224 16.553-17.618 2.3891-0.66244 9.5271-0.6928 11.641-0.04951 0.80036 0.24356 1.7113 0.52102 2.0244 0.6166 0.47931 0.14634 0.7483-0.09104 1.7042-1.5039 2.52-3.7247 7.1803-7.5 12.173-9.8613 12.875-6.0895 27.874-3.2952 37.677 7.0196 1.1642 1.2249 2.4143 2.6758 2.7781 3.2241 0.55574 0.8376 0.76719 0.97023 1.3229 0.82984 4.9197-1.2428 9.7362-1.1414 14.747 0.31073 11.391 3.3009 19.866 12.856 21.761 24.536 0.39596 2.4396 0.32576 8.0204-0.13119 10.429-2.4957 13.156-13.927 23.104-26.654 23.194l-3.1089 0.0219v0.95162c0 1.2112-0.82812 3.6253-1.8923 5.5162-2.9842 5.3026-7.8084 8.8534-14.247 10.487-2.9028 0.73627-7.8745 0.6832-10.701-0.11423-2.958-0.83463-5.9934-2.4911-7.9134-4.3184l-1.6265-1.548-0.46677 0.64039c-0.77041 1.057-4.1549 3.4986-6.4124 4.626-1.1642 0.58138-3.1882 1.3767-4.4979 1.7674-2.0679 0.61688-2.9558 0.72333-6.7469 0.8089-3.5643 0.0804-4.7784 7e-3 -6.6146-0.39896zm-34.068-68.753c0.25468-3.3791 2.3621-7.3656 5.4898-10.385 2.7916-2.6947 5.9843-4.376 9.8777-5.2016 3.3104-0.70198 8.0968-0.05485 5.174 0.69953-4.0633 1.0487-5.35 1.4682-7.2846 2.3748-5.164 2.4199-8.6051 5.8582-11.728 11.718-0.75614 1.4188-1.4397 2.5797-1.5191 2.5797-0.07934 0-0.08369-0.80367-0.0097-1.7859zm88.448-9.6573c1.5838-7.4453 9.3944-17.487 16.338-21.006 2.7426-1.3898 2.3104-0.62026-2.3357 4.1591-4.746 4.882-7.5593 8.4116-11.319 14.201-2.3047 3.5486-3.0263 4.2603-2.6829 2.6458zm-1.2683-9.525c-0.20077-0.52811 0.51584-2.9606 1.3716-4.6558 2.0626-4.086 5.9776-8.0287 9.8946-9.9646 2.1328-1.0541 4.2722-1.531 4.0072-0.89324-0.0837 0.20146-1.2964 1.2593-2.695 2.3507-3.6636 2.859-6.5516 5.8441-9.5978 9.9204-1.4687 1.9654-2.7119 3.5734-2.7626 3.5734-0.0507 0-0.14885-0.14883-0.218-0.33073zm-43.788-4.7625c0.17317-0.5297 2.5232-2.2024 4.336-3.0863 5.4184-2.6419 12.661-3.1612 18.221-1.3065 1.9518 0.65114 3.9694 1.7931 3.6656 2.0748-0.12362 0.11464-1.4749 0.02657-3.0029-0.19572-1.5348-0.22328-4.6135-0.40598-6.8792-0.40824-4.7476-0.0047-7.4312 0.46296-12.555 2.188-3.3914 1.1417-3.9538 1.2508-3.7848 0.73399z" fill="#818cf8" opacity=".46129" stroke-width=".26458"/>
 </g>
</svg>
