<?xml version="1.0" encoding="UTF-8" standalone="no"?>
<svg
   xmlns:dc="http://purl.org/dc/elements/1.1/"
   xmlns:cc="http://creativecommons.org/ns#"
   xmlns:rdf="http://www.w3.org/1999/02/22-rdf-syntax-ns#"
   xmlns:svg="http://www.w3.org/2000/svg"
   xmlns="http://www.w3.org/2000/svg"
   xmlns:sodipodi="http://sodipodi.sourceforge.net/DTD/sodipodi-0.dtd"
   xmlns:inkscape="http://www.inkscape.org/namespaces/inkscape"
   width="144.22185mm"
   height="144.31584mm"
   viewBox="0 0 144.22185 144.31584"
   version="1.1"
   id="svg8"
   inkscape:version="1.0.2-2 (e86c870879, 2021-01-15)"
   sodipodi:docname="pg2.svg">
  <defs
     id="defs2" />
  <sodipodi:namedview
     id="base"
     pagecolor="#ffffff"
     bordercolor="#666666"
     borderopacity="1.0"
     inkscape:pageopacity="0.0"
     inkscape:pageshadow="2"
     inkscape:zoom="0.35"
     inkscape:cx="81.104751"
     inkscape:cy="327.25851"
     inkscape:document-units="mm"
     inkscape:current-layer="g24"
     inkscape:document-rotation="0"
     showgrid="false"
     fit-margin-top="0"
     fit-margin-left="0"
     fit-margin-right="0"
     fit-margin-bottom="0"
     inkscape:window-width="1273"
     inkscape:window-height="728"
     inkscape:window-x="26"
     inkscape:window-y="0"
     inkscape:window-maximized="0" />
  <metadata
     id="metadata5">
    <rdf:RDF>
      <cc:Work
         rdf:about="">
        <dc:format>image/svg+xml</dc:format>
        <dc:type
           rdf:resource="http://purl.org/dc/dcmitype/StillImage" />
        <dc:title></dc:title>
      </cc:Work>
    </rdf:RDF>
  </metadata>
  <g
     inkscape:label="طبقة 1"
     inkscape:groupmode="layer"
     id="layer1"
     transform="translate(-36.749368,-61.579521)">
    <g
       id="g24">
      <path
         style="display:inline;opacity:0.46129032;fill:#818cf8;fill-opacity:1;stroke-width:0.282222"
         d="m 85.997143,205.73369 c -0.388055,-0.148 -3.372555,-2.92222 -6.632222,-6.16494 l -5.926666,-5.89584 -10.159999,-0.12221 c -11.19738,-0.13468 -11.699537,-0.20054 -15.522222,-2.0357 -5.035589,-2.41743 -8.893831,-7.1383 -10.49223,-12.83809 -0.47987,-1.71118 -0.514436,-3.4937 -0.514436,-26.52889 0,-23.03518 0.03457,-24.8177 0.514436,-26.52888 1.598399,-5.69979 5.456641,-10.42066 10.49223,-12.8381 4.08391,-1.96056 3.680702,-1.92166 21.201399,-2.04536 17.770034,-0.12546 17.530492,-0.14834 18.323655,1.74997 0.363259,0.8694 0.365029,1.12223 0.01374,1.96299 -0.735271,1.75975 -0.183735,1.70268 -17.948791,1.85716 -16.08867,0.1399 -16.24145,0.14664 -17.822836,0.78602 -3.945534,1.59524 -6.888845,4.5414 -8.489388,8.4976 l -0.640005,1.58194 v 24.97666 24.97667 l 0.639996,1.58193 c 1.601621,3.95887 4.553811,6.91247 8.489389,8.49346 1.540983,0.61904 1.978265,0.64569 12.898187,0.78602 l 11.303128,0.14525 4.137374,4.23334 4.137372,4.23333 0.01118,-2.90184 c 0.0123,-3.20099 0.403237,-4.582 1.468939,-5.18933 0.520683,-0.29673 4.270019,-0.40509 17.874447,-0.51661 17.11855,-0.14031 17.22454,-0.14474 18.81062,-0.78601 3.94688,-1.59579 6.8942,-4.54671 8.48724,-8.49761 0.61728,-1.53093 0.64246,-1.95957 0.7811,-13.29415 0.15697,-12.83278 0.14069,-12.71515 1.85931,-13.43324 1.38449,-0.57847 2.79565,0.0351 3.39838,1.47767 0.66504,1.59165 0.41588,22.87507 -0.29688,25.36112 -1.60601,5.60157 -5.4829,10.30667 -10.46199,12.69698 -4.07077,1.95425 -3.72846,1.92058 -20.79215,2.04533 l -15.429936,0.11281 -0.09229,5.33716 c -0.09111,5.26883 -0.101326,5.34583 -0.797847,6.01479 -0.850246,0.81658 -1.868639,1.07228 -2.822222,0.7086 z M 53.601581,170.06727 c -0.604241,-0.26253 -1.073052,-0.75078 -1.344343,-1.40007 -0.367314,-0.8791 -0.367266,-1.11492 3.95e-4,-1.99489 0.793865,-1.89996 -0.310838,-1.82429 26.632777,-1.82429 16.555713,0 24.51386,0.0962 25.10822,0.30334 2.33351,0.81347 2.33351,4.2243 0,5.03777 -0.59541,0.20756 -8.54273,0.29985 -25.169711,0.29229 -20.418762,-0.009 -24.447725,-0.0754 -25.227338,-0.41415 z m 59.548889,0 c -0.60424,-0.26253 -1.07305,-0.75078 -1.34435,-1.40007 -0.58373,-1.39706 0.008,-2.82159 1.41531,-3.40979 0.88028,-0.3678 1.11559,-0.3678 1.99587,0 2.18028,0.91098 2.18593,3.91233 0.009,4.82188 -1.1619,0.48547 -0.92775,0.48683 -2.0759,-0.012 z M 53.601581,154.26282 c -0.604241,-0.26252 -1.073052,-0.75077 -1.344343,-1.40006 -0.582026,-1.39298 0.0079,-2.82172 1.406241,-3.406 1.486244,-0.621 60.076641,-0.621 61.562881,0 2.17148,0.90729 2.17148,3.91079 0,4.81809 -1.46464,0.61196 -60.214983,0.6005 -61.624779,-0.012 z m 108.172229,-1.13037 c -0.46567,-0.24551 -3.21033,-2.80287 -6.09926,-5.68303 l -5.25258,-5.23663 -2.2263,0.49875 c -2.83234,0.63451 -16.95989,0.92255 -20.54117,0.4188 -12.06066,-1.69646 -22.25692,-8.13059 -28.953985,-18.27078 -4.91317,-7.43916 -7.255526,-16.67467 -6.477564,-25.539949 0.681287,-7.76366 3.139677,-14.500128 7.529291,-20.631739 2.082578,-2.909038 6.395708,-7.222167 9.304748,-9.304745 4.45621,-3.190198 10.30208,-5.784084 15.36179,-6.816218 6.45381,-1.316518 17.73847,-1.316518 24.19228,0 5.05971,1.032134 10.90558,3.62602 15.36179,6.816218 2.90904,2.082578 7.22217,6.395707 9.30475,9.304745 9.29682,12.986226 10.24572,30.196688 2.42349,43.955918 -1.95726,3.44281 -4.23611,6.37804 -7.27699,9.37296 l -2.53407,2.49577 -0.0826,8.67062 -0.0825,8.67061 -0.70556,0.70474 c -0.92309,0.92204 -2.16785,1.14217 -3.24555,0.57396 z m -1.17504,-21.34177 c 0.12219,-0.25337 0.75406,-0.8834 1.40415,-1.40006 11.62663,-9.24012 16.38376,-24.89803 11.75865,-38.703083 -1.89374,-5.652414 -4.48026,-9.82331 -8.72267,-14.065717 -4.2424,-4.242406 -8.4133,-6.828931 -14.06572,-8.722664 -4.0195,-1.346657 -7.00943,-1.697747 -14.45826,-1.697747 -7.44883,0 -10.43876,0.35109 -14.45827,1.697747 -5.65241,1.893733 -9.82331,4.480258 -14.06572,8.722664 -4.24352,4.243524 -6.82886,8.413098 -8.724111,14.070052 -2.409534,7.191976 -2.192432,16.344788 0.555939,23.437818 4.823132,12.44761 16.109252,21.1749 29.261592,22.62729 2.00419,0.22132 5.44762,0.30019 9.45423,0.21655 5.56861,-0.11625 6.69141,-0.2212 9.64945,-0.90197 2.71107,-0.62392 3.49214,-0.71052 4.10797,-0.45544 0.41822,0.17324 2.34082,1.89963 4.27244,3.83643 l 3.51203,3.52147 0.14807,-5.86133 c 0.0814,-3.22373 0.24804,-6.06864 0.37023,-6.32201 z m -24.69599,-6.87148 c -1.02475,-0.5755 -1.53791,-2.14856 -1.06966,-3.27901 1.11398,-2.6894 5.06846,-1.98935 5.06846,0.89725 0,2.07444 -2.20617,3.38848 -3.9988,2.38176 z m -0.43046,-11.55161 -0.79185,-0.68044 -0.0923,-4.17084 c -0.0581,-2.62814 0.0309,-4.61075 0.24073,-5.36015 0.43916,-1.56852 1.73504,-2.77699 3.8787,-3.617088 2.40413,-0.94217 3.2101,-1.580839 4.13162,-3.273967 0.69514,-1.277202 0.77898,-1.68994 0.68416,-3.36807 -0.13305,-2.354529 -1.02016,-3.858277 -2.93979,-4.983257 -4.15877,-2.437203 -9.0497,0.112925 -9.63106,5.021633 -0.21991,1.856794 -0.989,2.754252 -2.53837,2.962066 -1.05078,0.140939 -1.28306,0.06131 -2.04567,-0.701297 -0.72893,-0.728934 -0.86029,-1.075224 -0.86029,-2.267965 0,-5.620765 4.6774,-10.683022 10.43973,-11.298726 3.88412,-0.415018 7.31971,0.809736 9.8875,3.524798 5.11843,5.411982 4.09971,14.061333 -2.1239,18.032813 -0.77611,0.49526 -1.88736,1.05592 -2.46944,1.24592 l -1.05833,0.34545 v 3.04728 c 0,1.676 -0.079,3.44235 -0.17559,3.92521 -0.4299,2.14953 -2.89381,3.02768 -4.5359,1.61663 z m -81.870739,25.09079 c -0.604241,-0.26253 -1.073052,-0.75077 -1.344343,-1.40006 -0.582026,-1.39299 0.0079,-2.82173 1.406241,-3.40601 1.479383,-0.61812 41.739058,-0.61812 43.218441,0 2.171474,0.9073 2.171474,3.91079 0,4.81809 -1.457731,0.60908 -41.876654,0.59785 -43.280339,-0.012 z"
         id="path26" />
    </g>
  </g>
</svg>
