<?xml version="1.0" encoding="UTF-8"?>
<svg width="135.44mm" height="135.1mm" version="1.1" viewBox="0 0 135.44 135.1" xmlns="http://www.w3.org/2000/svg" xmlns:cc="http://creativecommons.org/ns#" xmlns:dc="http://purl.org/dc/elements/1.1/" xmlns:rdf="http://www.w3.org/1999/02/22-rdf-syntax-ns#">
 <metadata>
  <rdf:RDF>
   <cc:Work rdf:about="">
    <dc:format>image/svg+xml</dc:format>
    <dc:type rdf:resource="http://purl.org/dc/dcmitype/StillImage"/>
    <dc:title/>
   </cc:Work>
  </rdf:RDF>
 </metadata>
 <g transform="translate(-49.439 -64.839)">
  <path d="m66.881 199.76c-2.3263-0.40063-4.3647-1.8946-5.416-3.9696-0.25976-0.51272-0.52117-1.7527-0.58568-2.7781-0.10714-1.703-0.04469-1.9905 0.77589-3.5719 0.96434-1.8584 2.5352-3.1759 4.4061-3.6956 0.56519-0.15698 4.4105-0.27103 9.175-0.27212 7.2768-2e-3 8.3065-0.0541 9.1281-0.4645 2.6862-1.3419 2.1814-5.329-0.77871-6.1514-0.55903-0.1553-6.0701-0.26203-13.575-0.26291l-12.634-1e-3v-3.7042h13.181c14.666 0 14.932 0.027 16.903 1.7145 3.9361 3.3692 3.0639 9.713-1.6418 11.941-1.3022 0.61667-1.4513 0.62653-9.525 0.63053-4.7694 2e-3 -8.6102 0.11741-9.1773 0.27491-1.1747 0.32627-2.2485 1.5252-2.4824 2.7717-0.22792 1.215 0.54953 2.7042 1.747 3.3464 0.87156 0.46742 2.5948 0.48703 42.32 0.48145 39.602-6e-3 41.458-0.027 42.47-0.4913 2.2162-1.0166 3.5561-3.1098 3.5661-5.5709 8e-3 -2.0597-0.66537-3.2184-3.5266-6.0655l-2.4886-2.4762-1.9504 1.6391c-7.0294 5.9072-13.228 8.4728-20.471 8.4728-10.298 0-20.898-5.8852-35.711-19.828-8.1808-7.7-21.502-21.299-26.002-26.545-7.3577-8.5765-11.465-15.149-13.513-21.626-2.6498-8.3775-1.4471-16.61 3.5479-24.284 2.1046-3.2334 4.1742-5.6217 9.1517-10.56 5.455-5.4124 6.0744-5.7695 10.007-5.7695 4.4197 0 4.3258-0.06552 14.5 10.112 7.69 7.6926 8.6389 8.7364 9.3948 10.335 0.752 1.5899 0.84062 2.0297 0.83808 4.1592-0.0043 3.5848-0.58148 4.6293-5.1127 9.2516-5.2626 5.3686-6.8435 7.1507-8.2375 9.286-1.4294 2.1896-2.2428 4.7058-1.9952 6.1717 0.4106 2.4303 3.3589 5.8987 13.529 15.915 9.0546 8.9182 10.364 9.8948 13.243 9.8808 3.2438-0.0158 6.1784-2.0124 13.571-9.2331 5.7693-5.6354 6.445-6.0319 10.33-6.0604 1.9856-0.0146 2.4529 0.0798 3.9908 0.80596 1.5573 0.73535 2.6564 1.7391 10.374 9.4742 10.221 10.243 10.109 10.084 10.109 14.436 0 3.7617-0.3864 4.5546-4.0127 8.2346l-2.8126 2.8542 2.7287 2.8561c3.0681 3.2113 4.1195 5.0388 4.3904 7.6314 0.45302 4.3343-2.412 8.8179-6.6082 10.342-1.3021 0.47285-3.0733 0.49495-42.634 0.53196-22.701 0.0212-41.82-0.0553-42.487-0.17006zm65.013-12.704c3.8593-0.97639 9.1411-3.9674 12.875-7.2907l1.2095-1.0766-23.432-23.427-2.3562 1.8958c-4.4159 3.5532-7.5368 4.8882-10.992 4.702-2.4067-0.1297-4.2507-0.92905-6.5352-2.833-5.2254-4.355-18.144-17.374-20.885-21.047-1.9193-2.572-2.2748-3.5845-2.2762-6.4823-0.0011-2.0125 0.11867-2.8036 0.60005-3.9688 0.85212-2.0625 2.2552-4.2918 4.2211-6.7071l1.698-2.0862-23.388-23.354-1.462 1.5875c-2.7549 2.9915-5.34 7.3633-6.5552 11.086-2.087 6.3935-1.2079 12.906 2.763 20.467 4.1185 7.8423 9.9898 14.761 26.24 30.922 13.512 13.437 18.519 17.853 25.087 22.126 5.3372 3.4722 10.155 5.3792 15.478 6.1261 1.5557 0.21831 5.6628-0.12315 7.7095-0.64097zm-73.723-66.671v-1.8521h3.9687v3.7042h-3.9687zm0-7.9375v-1.8521h3.9687v3.7042h-3.9687zm95.938 57.547c0.37441-0.78609 0.6301-1.8061 0.6301-2.5135 0-2.4001-0.66652-3.2459-9.4249-11.96-5.4079-5.3805-8.4969-8.2616-9.1484-8.5328-1.3901-0.57856-3.7683-0.52597-5.0843 0.11243-0.59164 0.28701-2.1458 1.5977-3.4536 2.9126l-2.3779 2.3908 23.535 23.539 2.347-2.313c1.4676-1.4464 2.5832-2.8087 2.9772-3.636zm-62.651-56.583c1.3352-1.3615 2.6158-2.9258 2.8458-3.4763 0.53916-1.2904 0.53455-3.4848-0.01005-4.7933-0.29654-0.71245-2.9623-3.5685-8.6669-9.2857-9.1468-9.1669-9.6298-9.5314-12.267-9.2592-1.9538 0.20165-2.8326 0.74326-5.6048 3.4542l-2.4556 2.4014 11.715 11.717c6.4432 6.4444 11.783 11.717 11.866 11.717 0.08294 0 1.2432-1.114 2.5784-2.4754zm-42.018 63.33v-1.8521h3.9688v3.7042h-3.9688zm93.266-39.834c-6.7376-1.1384-13.675-4.4638-18.455-8.8459l-1.7859-1.6374v6.926h-3.9688v-14.023h14.023v3.7042h-3.8365c-2.11 0-3.8364 0.10452-3.8364 0.23227 0 0.29753 2.8302 2.7731 4.9236 4.3067 3.3435 2.4493 8.234 4.5344 12.731 5.4277 3.097 0.61524 9.1743 0.60099 12.111-0.0284 6.685-1.4326 11.915-4.2525 16.696-9.0024 4.9945-4.9617 8.0534-10.751 9.2223-17.453 0.22636-1.298 0.4648-2.4133 0.52986-2.4784 0.0651-0.0651 0.89761-0.0349 1.8501 0.0671 2.0009 0.21428 1.9253 0.0225 1.3372 3.3951-1.2604 7.228-4.7788 13.884-10.17 19.238-5.6068 5.5688-12.44 9.031-20.127 10.198-3.0768 0.46728-8.3962 0.45467-11.245-0.0266zm-28.666-24.32c-0.31376-0.95579-0.57048-1.8399-0.57048-1.9647 0-0.2107 3.4306-1.2013 3.5669-1.03 0.0339 0.0426 0.30488 0.80951 0.60224 1.7044l0.54065 1.627-1.3627 0.5301c-0.7495 0.29155-1.5525 0.6068-1.7844 0.70055-0.33291 0.13456-0.54183-0.19546-0.99219-1.5674zm-1.6311-7.0503c-1e-3 -0.34622-0.0774-1.2546-0.16915-2.0186l-0.16684-1.3891h4.0425v1.3013c0 0.7157 0.0664 1.4742 0.14749 1.6856 0.18468 0.48128-0.22567 0.63994-2.2463 0.86855-1.5647 0.17703-1.6054 0.1657-1.6077-0.44786zm68.529-6.5495c0-0.56389-0.0717-1.384-0.15945-1.8225l-0.15945-0.79724 1.8949-0.1903c1.0422-0.10466 1.9309-0.14774 1.9749-0.09573 0.044 0.05201 0.1491 0.95778 0.23352 2.0128l0.15349 1.9182h-3.938zm-67.27-1.0213c-1.2018-0.09476-1.2568-0.13427-1.2568-0.90294 0-1.2882 1.0071-5.8702 1.7496-7.9602 4.4592-12.552 15.199-21.594 28.378-23.893 2.8681-0.50016 8.7551-0.49429 11.876 0.01185 6.6771 1.0829 13.495 4.3668 18.388 8.8568l1.7859 1.6388v-6.926h3.9688v14.023h-14.023v-3.7042h3.8365c2.1918 0 3.8365-0.1056 3.8365-0.24634 0-0.39312-3.9104-3.6953-5.9001-4.9825-2.8649-1.8533-6.5454-3.4716-9.9148-4.3594-2.8938-0.76254-3.4146-0.81801-7.733-0.82366-3.4306-0.0045-5.1346 0.11024-6.577 0.44281-13.629 3.1423-23.552 13.552-25.71 26.969-0.29491 1.834-0.38877 2.0455-0.88875 2.0028-0.30745-0.02622-1.1246-0.09228-1.8158-0.14679zm65.727-7.002c-0.31001-0.90792-0.47664-1.7238-0.37029-1.8131 0.25485-0.21396 3.2966-1.3414 3.3689-1.2487 0.22602 0.28967 1.1533 3.4892 1.0566 3.6457-0.0672 0.10865-0.68967 0.33664-1.3834 0.50664-0.6937 0.17-1.4518 0.36561-1.6847 0.43469-0.32086 0.09517-0.56004-0.27437-0.98712-1.5252z" fill="#818cf8" opacity=".46129" stroke-width=".26458"/>
 </g>
</svg>
