<?xml version="1.0" encoding="UTF-8"?>
<svg width="134.41mm" height="133.3mm" version="1.1" viewBox="0 0 134.41 133.3" xmlns="http://www.w3.org/2000/svg" xmlns:cc="http://creativecommons.org/ns#" xmlns:dc="http://purl.org/dc/elements/1.1/" xmlns:rdf="http://www.w3.org/1999/02/22-rdf-syntax-ns#">
 <metadata>
  <rdf:RDF>
   <cc:Work rdf:about="">
    <dc:format>image/svg+xml</dc:format>
    <dc:type rdf:resource="http://purl.org/dc/dcmitype/StillImage"/>
    <dc:title/>
   </cc:Work>
  </rdf:RDF>
 </metadata>
 <g transform="translate(-30.314 -52.838)">
  <path d="m80.055 186.1c0-0.98041-1.7209-13.028-2.1209-14.848-1.0417-4.7401-2.5465-8.6146-3.9101-10.068-0.55408-0.59068-0.91303-0.72761-1.9073-0.72761-3.8174 0-9.2419 1.7288-17.969 5.7268-2.9712 1.3611-5.4279 2.4452-5.4593 2.4089-0.0314-0.0362 0.87993-2.2686 2.0252-4.9607 3.5587-8.3654 5.2643-14.219 5.2643-18.067 0-2.2751-0.26355-2.6467-2.6466-3.7315-3.6412-1.6576-9.2333-2.7672-17.664-3.5049-2.9491-0.25805-5.3303-0.55675-5.2917-0.66378 0.03864-0.10704 1.9752-1.6387 4.3036-3.4036 7.4475-5.6455 12.027-10.094 13.633-13.242 0.69442-1.3612 0.65651-1.9963-0.20779-3.4812-1.9917-3.4219-5.9374-7.2149-13.227-12.715-2.5102-1.8941-4.5641-3.5261-4.5641-3.6267 0-0.10055 1.8752-0.32803 4.1672-0.50551 8.4137-0.65151 14.96-1.8901 18.582-3.5158 2.6598-1.1939 2.9158-1.5312 2.9158-3.8411 0-3.8664-1.7109-9.6979-5.38-18.338-1.0815-2.5466-1.9392-4.6613-1.9061-4.6993 0.0331-0.03802 2.1325 0.89727 4.6654 2.0784 5.6092 2.6158 9.8677 4.2791 13.204 5.1574 2.9708 0.78204 6.2757 1.1031 7.0561 0.68541 0.7526-0.40278 2.2644-3.4127 3.2129-6.3969 1.0513-3.3075 1.7495-7.0129 2.5466-13.516 0.35956-2.9333 0.70017-5.3798 0.75691-5.4365s1.4588 1.8329 3.1156 4.1991c1.6569 2.3662 3.9271 5.4395 5.0449 6.8296 2.5147 3.127 6.3189 6.7794 7.9768 7.6587l1.2464 0.661 1.2464-0.661c1.6809-0.89145 5.5358-4.5934 8.0154-7.6973 1.1153-1.3961 3.3758-4.4632 5.0233-6.8158s3.0307-4.2422 3.0738-4.1991c0.0431 0.04309 0.38659 2.5045 0.76333 5.4697 0.8443 6.6454 1.5276 10.244 2.565 13.508 0.94853 2.9842 2.4603 5.9941 3.2129 6.3969 0.77864 0.41672 4.0765 0.0977 7.0796-0.68484 3.3025-0.86055 7.4771-2.494 13.18-5.1569 2.5324-1.1825 4.6348-2.1186 4.6719-2.0802 0.0371 0.03843-0.9227 2.4073-2.1329 5.2642-3.5766 8.4431-5.159 13.893-5.159 17.767 0 2.2751 0.26356 2.6467 2.6466 3.7315 3.6982 1.6835 9.0742 2.7492 17.682 3.5049 2.9348 0.25765 5.3359 0.54651 5.3359 0.64192 0 0.0954-2.0538 1.7232-4.5641 3.6173-7.2896 5.5004-11.235 9.2934-13.227 12.715-0.8643 1.4849-0.90221 2.1201-0.20779 3.4812 1.6204 3.1763 5.981 7.4187 13.435 13.071 2.5102 1.9035 4.5641 3.5297 4.5641 3.6138 0 0.0841-2.3515 0.36098-5.2255 0.6152-8.5538 0.75662-14.173 1.8665-17.792 3.514-2.3831 1.0848-2.6466 1.4564-2.6466 3.7315 0 3.8478 1.7056 9.7013 5.2644 18.067 1.1453 2.6921 2.053 4.928 2.0172 4.9687-0.0358 0.0406-2.0162-0.83584-4.4009-1.9477-9.1666-4.274-15.066-6.196-19.019-6.196-1.4373 0-2.1831 0.63789-3.2483 2.7781-1.727 3.4699-2.92 8.6038-4.0304 17.344-0.37674 2.9652-0.72023 5.4266-0.76333 5.4697s-1.434-1.8577-3.0908-4.2239c-1.6569-2.3662-3.9271-5.4396-5.0449-6.8296-2.5148-3.127-6.3189-6.7794-7.9768-7.6587l-1.2464-0.66101-1.2464 0.66101c-1.6289 0.86386-5.3822 4.4521-7.8441 7.4991-1.0764 1.3323-3.2949 4.3273-4.9299 6.6556-2.9316 4.1747-3.4421 4.8583-3.4421 4.6098zm10.634-24.405c5.8969-4.2078 10.463-3.4126 17.239 3.0022l2.183 2.0664 0.7319-2.2938c1.788-5.6036 4.3157-9.3686 7.2611-10.815 1.447-0.71061 1.6544-0.73841 5.342-0.71609 3.2288 0.0195 4.2346 0.12999 6.35 0.69736 1.3824 0.37078 2.5596 0.6318 2.6158 0.58003 0.0563-0.0518-0.14748-1.3181-0.45277-2.814-1.0454-5.1225-0.98753-8.5225 0.19036-11.185 1.3812-3.1225 5.1629-5.5298 11.404-7.2592 1.0608-0.29395 1.9883-0.59409 2.0612-0.66697 0.0729-0.0729-0.67098-0.98425-1.653-2.0253-3.6755-3.8962-5.5204-7.5122-5.5204-10.82 0-3.2991 1.7494-6.7268 5.5017-10.78 0.95064-1.0268 1.7284-1.9339 1.7284-2.0157 0-0.0819-0.50602-0.27751-1.1245-0.43475-6.536-1.6617-10.72-4.1351-12.216-7.2215-1.3611-2.8078-1.4683-6.1295-0.37131-11.505 0.30529-1.496 0.50904-2.7623 0.45277-2.814-0.0563-0.05176-1.2334 0.20925-2.6158 0.58003-2.1154 0.56737-3.1212 0.67782-6.35 0.69736-3.6875 0.0223-3.8949-0.0055-5.342-0.71609-2.9242-1.436-5.3476-4.981-7.1232-10.42l-0.87892-2.6922-2.0211 1.9309c-4.0607 3.8795-7.4237 5.7418-10.432 5.7764-3.1098 0.03583-6.4018-1.7134-10.461-5.5586l-2.2591-2.1399-0.87747 2.6878c-1.774 5.434-4.1984 8.9796-7.1217 10.415-1.4471 0.7106-1.6545 0.73841-5.342 0.71609-3.2288-0.01953-4.2346-0.13-6.35-0.69736-1.3824-0.37078-2.5596-0.63179-2.6159-0.58003-0.05627 0.05177 0.14748 1.3181 0.45277 2.814 1.097 5.3752 0.98976 8.6969-0.37131 11.505-1.3389 2.7622-5.3004 5.294-10.695 6.8351-1.3824 0.39495-2.5586 0.75822-2.6138 0.80728-0.05512 0.0491 0.69292 0.94585 1.6623 1.9929 2.1758 2.3501 4.1506 5.2675 4.9391 7.2965 0.81825 2.1057 0.81825 4.9342 0 7.0399-0.79348 2.042-2.9098 5.1648-5.006 7.3869-0.93682 0.99308-1.6565 1.8469-1.5993 1.8973 0.05722 0.0505 1.3542 0.4731 2.8822 0.9392 5.6376 1.7198 9.0877 3.9387 10.43 6.7083 1.3611 2.8078 1.4683 6.1295 0.37131 11.505-0.30529 1.496-0.50766 2.7673-0.44971 2.8253 0.05795 0.058 1.2351-0.2046 2.6158-0.58346 2.1424-0.58784 3.073-0.69174 6.3469-0.70862 3.6841-0.019 3.8962 0.01 5.342 0.71953 2.9502 1.4487 5.4541 5.1851 7.2532 10.823l0.73461 2.3021 2.0002-1.9109c1.1001-1.051 2.797-2.4795 3.7709-3.1744z" fill="#818cf8" opacity=".46129" stroke-width=".26458"/>
 </g>
</svg>
