<?xml version="1.0" encoding="UTF-8"?>
<svg width="135.26mm" height="118.92mm" version="1.1" viewBox="0 0 135.26 118.92" xmlns="http://www.w3.org/2000/svg" xmlns:cc="http://creativecommons.org/ns#" xmlns:dc="http://purl.org/dc/elements/1.1/" xmlns:rdf="http://www.w3.org/1999/02/22-rdf-syntax-ns#">
 <metadata>
  <rdf:RDF>
   <cc:Work rdf:about="">
    <dc:format>image/svg+xml</dc:format>
    <dc:type rdf:resource="http://purl.org/dc/dcmitype/StillImage"/>
    <dc:title/>
   </cc:Work>
  </rdf:RDF>
 </metadata>
 <g transform="translate(-33.667 -63.075)">
  <path d="m47.936 178.03c2.1181-2.1803 4.3971-4.7294 5.0646-5.6647 1.9844-2.7808 3.3421-6.1101 3.9551-9.6985 0.15542-0.90974 0.10926-0.97449-1.4952-2.0974-10.792-7.5531-18.096-18.026-20.67-29.64-1.9005-8.5745-1.3955-16.995 1.5502-25.849 4.7228-14.195 15.866-26.726 30.296-34.068 7.7606-3.9487 16.121-6.4513 25.4-7.6037 3.6055-0.44777 16.135-0.44746 19.844 4.76e-4 12.3 1.4858 22.26 4.668 30.85 9.8567 22.857 13.806 32.099 40.536 22.333 64.591-3.9961 9.843-11.305 18.593-20.639 24.707-12.074 7.9092-28.02 11.93-45.244 11.407-6.8384-0.20761-12.39-0.89872-18.331-2.2821l-2.1431-0.49903-1.7924 1.6595c-3.6165 3.3483-8.8655 6.3112-13.646 7.7027-3.8378 1.1171-6.7989 1.4386-13.265 1.4403l-5.9183 2e-3zm17.041-6.498c1.0517-0.48123 2.7786-1.4739 3.8374-2.2059 1.7289-1.1952 5.4579-4.7017 6.7568-6.3536l0.49776-0.63307 4.0813 1.0867c7.5422 2.0083 13.429 2.7465 21.808 2.735 18.2-0.025 32.972-4.8782 43.777-14.383 7.523-6.6174 12.44-15.061 14.604-25.082 0.51656-2.3912 0.60015-3.552 0.60015-8.3344 0-5.8681-0.35547-8.4931-1.7377-12.832-4.8338-15.175-17.441-26.712-34.668-31.725-12.714-3.7003-28.668-4.0678-40.99-0.94419-21.252 5.3871-37.028 20.651-41.285 39.946-0.67989 3.0814-0.95321 10.039-0.51566 13.126 1.0276 7.25 3.981 13.813 8.8778 19.729 2.8655 3.4618 6.2365 6.4089 10.789 9.4323l3.638 2.416-0.0052 1.8578c-0.01013 3.5884-0.95904 8.2233-2.3734 11.592-0.87999 2.0963-0.97239 2.0734 2.3064 0.57307z" fill="#818cf8" opacity=".46129" stroke-width=".26458"/>
 </g>
</svg>
