<?xml version="1.0" encoding="UTF-8" standalone="no"?>
<svg
   xmlns:dc="http://purl.org/dc/elements/1.1/"
   xmlns:cc="http://creativecommons.org/ns#"
   xmlns:rdf="http://www.w3.org/1999/02/22-rdf-syntax-ns#"
   xmlns:svg="http://www.w3.org/2000/svg"
   xmlns="http://www.w3.org/2000/svg"
   xmlns:sodipodi="http://sodipodi.sourceforge.net/DTD/sodipodi-0.dtd"
   xmlns:inkscape="http://www.inkscape.org/namespaces/inkscape"
   width="414.42252mm"
   height="130.04272mm"
   viewBox="0 0 414.42252 130.04272"
   version="1.1"
   id="svg30"
   inkscape:version="1.0.2-2 (e86c870879, 2021-01-15)"
   sodipodi:docname="logo-f7-ligth.svg">
  <defs
     id="defs24">
    <rect
       x="108.10119"
       y="66.523811"
       width="42.333332"
       height="12.85119"
       id="rect18" />
  </defs>
  <sodipodi:namedview
     id="base"
     pagecolor="#ffffff"
     bordercolor="#666666"
     borderopacity="1.0"
     inkscape:pageopacity="0.0"
     inkscape:pageshadow="2"
     inkscape:zoom="0.35"
     inkscape:cx="1376.4464"
     inkscape:cy="157.17862"
     inkscape:document-units="mm"
     inkscape:current-layer="layer1"
     inkscape:document-rotation="0"
     showgrid="false"
     fit-margin-top="0"
     fit-margin-left="0"
     fit-margin-right="0"
     fit-margin-bottom="0"
     inkscape:window-width="1273"
     inkscape:window-height="728"
     inkscape:window-x="77"
     inkscape:window-y="0"
     inkscape:window-maximized="0" />
  <metadata
     id="metadata27">
    <rdf:RDF>
      <cc:Work
         rdf:about="">
        <dc:format>image/svg+xml</dc:format>
        <dc:type
           rdf:resource="http://purl.org/dc/dcmitype/StillImage" />
        <dc:title></dc:title>
      </cc:Work>
    </rdf:RDF>
  </metadata>
  <g
     inkscape:label="طبقة 1"
     inkscape:groupmode="layer"
     id="layer1"
     transform="translate(305.97644,-106.57983)">
    <g
       inkscape:label="طبقة 1"
       id="layer1-55"
       transform="translate(-245.44577,121.85952)">
      <path
         style="display:inline;fill:#818cf8;fill-opacity:1;stroke-width:0.352778"
         d="m -22.225144,111.91281 c 9.735064,-0.20133 26.0391918,-0.69667 35.201763,-0.52213 9.689351,0.18457 22.052181,0.0232 29.434981,0.628 9.08018,0.1008 9.11849,-13.069138 1.23892,-13.882648 -18.07526,-1.93457 -64.25459,-4.48487 -88.554814,6.466808 -3.795865,1.80858 -9.402429,3.69213 -9.834809,7.07044 0.01665,3.22784 2.321384,3.52569 8.00022,2.69629 10.349008,-1.53418 15.780813,-2.27616 24.513739,-2.45676 z m -26.314589,-11.78055 c 2.55414,-2.443188 3.123738,-8.582058 3.304354,-12.244138 0.381735,-7.73988 -0.62519,-11.35527 0.05555,-22.60403 0.79166,-13.08166 5.807068,-21.36177 12.375272,-25.56776 14.900256,-7.61716 50.921457,-6.86994 63.851607,-7.64212 15.55657,-1.53579 20.05491,-8.44538 22.55127,-12.41346 9.8247,-15.7197671 -7.17135,-41.579345 -35.27774,-33.36803 -2.7256,0.796287 -7.594342,4.4065044 -7.521222,7.5495389 0.1208,1.579563 0.37899,3.747695 3.116722,3.204647 20.93673,-5.6471018 30.65382,15.3087741 13.38122,18.5146741 -24.2272723,3.30588 -65.209687,0.75892 -75.929781,11.55419 -8.978194,7.49332 -12.037671,26.71399 -11.879711,39.82035 -0.44109,15.31389 7.11548,37.953958 11.972459,33.196138 z M 65.39873,99.794172 c 1.47154,-2.6966 1.51766,-6.08884 2.1096,-9.68453 1.85506,-27.70749 2.63602,-55.42245 1.20097,-59.56753 -2.2411,-5.80136 -10.97574,-5.46954 -11.2937,9.25949 -0.1026,5.14173 -0.29997,11.09486 -0.4386,13.22917 0.12103,12.86211 0.55152,44.06856 2.89273,46.8756 1.5322,1.837068 4.26352,2.092368 5.529,-0.1122 z"
         id="path46"
         sodipodi:nodetypes="sscccccsssccccscccccscccccsc" />
      <g
         inkscape:label="طبقة 1"
         id="layer1-5"
         transform="translate(-14.368107,-5.0447342)"
         style="fill:#818cf8;fill-opacity:1">
        <text
           xml:space="preserve"
           style="font-size:70.5556px;line-height:0.66;font-family:Nunito;-inkscape-font-specification:Nunito;fill:#818cf8;fill-opacity:1;stroke-width:0.264583"
           x="119.34019"
           y="53.672619"
           id="text12"><tspan
             sodipodi:role="line"
             id="tspan10"
             x="119.34019"
             y="53.672619"
             style="font-style:normal;font-variant:normal;font-weight:300;font-stretch:normal;font-size:70.5556px;font-family:Nunito;-inkscape-font-specification:'Nunito Light';fill:#818cf8;fill-opacity:1;stroke-width:0.264583">Space</tspan><tspan
             sodipodi:role="line"
             x="119.34019"
             y="100.23932"
             style="font-style:normal;font-variant:normal;font-weight:300;font-stretch:normal;font-size:70.5556px;font-family:Nunito;-inkscape-font-specification:'Nunito Light';fill:#818cf8;fill-opacity:1;stroke-width:0.264583"
             id="tspan14">Booking</tspan></text>
      </g>
    </g>
  </g>
</svg>
